<svg width="160" height="48" viewBox="0 0 160 48" fill="none" xmlns="http://www.w3.org/2000/svg">
<rect width="48" height="48" rx="24" fill="#575757"/>
<path d="M25.6667 21.75V24.1667H27.8333C28 24.1667 28.0833 24.3333 28.0833 24.5L27.75 26.0833C27.75 26.1667 27.5833 26.25 27.5 26.25H25.6667V32.3333H23.1667V26.3333H21.75C21.5833 26.3333 21.5 26.25 21.5 26.0833V24.5C21.5 24.3333 21.5833 24.25 21.75 24.25H23.1667V21.5C23.1667 20.0833 24.25 19 25.6667 19H27.9167C28.0833 19 28.1667 19.0833 28.1667 19.25V21.25C28.1667 21.4167 28.0833 21.5 27.9167 21.5H25.9167C25.75 21.5 25.6667 21.5833 25.6667 21.75Z" stroke="white" stroke-miterlimit="10" stroke-linecap="round"/>
<path d="M26.5 32.3334H21.5C17.3333 32.3334 15.6667 30.6667 15.6667 26.5001V21.5001C15.6667 17.3334 17.3333 15.6667 21.5 15.6667H26.5C30.6667 15.6667 32.3333 17.3334 32.3333 21.5001V26.5001C32.3333 30.6667 30.6667 32.3334 26.5 32.3334Z" stroke="white" stroke-linecap="round" stroke-linejoin="round"/>
<rect x="56" width="48" height="48" rx="24" fill="#575757"/>
<path d="M84.1667 30.6666H75.8333C73.3333 30.6666 71.6667 28.9999 71.6667 26.4999V21.4999C71.6667 18.9999 73.3333 17.3333 75.8333 17.3333H84.1667C86.6667 17.3333 88.3333 18.9999 88.3333 21.4999V26.4999C88.3333 28.9999 86.6667 30.6666 84.1667 30.6666Z" stroke="white" stroke-miterlimit="10" stroke-linecap="round" stroke-linejoin="round"/>
<path d="M79.5 21.9168L81.5833 23.1668C82.3333 23.6668 82.3333 24.4168 81.5833 24.9168L79.5 26.1668C78.6667 26.6668 78 26.2501 78 25.3334V22.8334C78 21.7501 78.6667 21.4168 79.5 21.9168Z" stroke="white" stroke-miterlimit="10" stroke-linecap="round" stroke-linejoin="round"/>
<rect x="112" width="48" height="48" rx="24" fill="#575757"/>
<path d="M131.75 31.1667C133 31.9167 134.5 32.3334 136 32.3334C140.583 32.3334 144.333 28.5834 144.333 24.0001C144.333 19.4167 140.583 15.6667 136 15.6667C131.417 15.6667 127.667 19.4167 127.667 24.0001C127.667 25.5001 128.083 26.9167 128.75 28.1667L128.107 30.6394C127.912 31.3883 128.606 32.0652 129.35 31.8526L131.75 31.1667Z" stroke="white" stroke-miterlimit="10" stroke-linecap="round" stroke-linejoin="round"/>
<path d="M139.75 26.3737C139.75 26.5087 139.72 26.6475 139.656 26.7825C139.592 26.9175 139.51 27.045 139.401 27.165C139.217 27.3675 139.014 27.5138 138.785 27.6075C138.559 27.7013 138.315 27.75 138.052 27.75C137.669 27.75 137.26 27.66 136.828 27.4763C136.396 27.2925 135.964 27.045 135.536 26.7338C135.104 26.4188 134.695 26.07 134.304 25.6837C133.918 25.2937 133.568 24.885 133.257 24.4575C132.949 24.03 132.701 23.6025 132.52 23.1788C132.34 22.7513 132.25 22.3425 132.25 21.9525C132.25 21.6975 132.295 21.4538 132.385 21.2288C132.475 21 132.618 20.79 132.817 20.6025C133.057 20.3663 133.32 20.25 133.598 20.25C133.703 20.25 133.809 20.2725 133.902 20.3175C134 20.3625 134.087 20.43 134.154 20.5275L135.025 21.7538C135.093 21.8475 135.142 21.9338 135.176 22.0163C135.209 22.095 135.228 22.1738 135.228 22.245C135.228 22.335 135.202 22.425 135.149 22.5112C135.101 22.5975 135.029 22.6875 134.939 22.7775L134.654 23.0737C134.612 23.115 134.594 23.1638 134.594 23.2238C134.594 23.2538 134.597 23.28 134.605 23.31C134.616 23.34 134.627 23.3625 134.635 23.385C134.702 23.5087 134.819 23.67 134.984 23.865C135.153 24.06 135.333 24.2588 135.529 24.4575C135.731 24.6563 135.927 24.84 136.126 25.0087C136.321 25.1737 136.483 25.2862 136.61 25.3537C136.629 25.3612 136.652 25.3725 136.678 25.3837C136.708 25.395 136.738 25.3987 136.772 25.3987C136.836 25.3987 136.884 25.3763 136.926 25.335L137.211 25.0538C137.305 24.96 137.395 24.8887 137.482 24.8438C137.568 24.7912 137.654 24.765 137.748 24.765C137.82 24.765 137.895 24.78 137.977 24.8138C138.06 24.8475 138.146 24.8963 138.24 24.96L139.483 25.8412C139.581 25.9087 139.649 25.9875 139.69 26.0812C139.727 26.175 139.75 26.2687 139.75 26.3737Z" stroke="white" stroke-miterlimit="10"/>
</svg>
