<svg width="120" height="39" viewBox="0 0 120 39" fill="none" xmlns="http://www.w3.org/2000/svg">
<g clip-path="url(#clip0_4805_4133)">
<path d="M10.6408 7.66929C11.5485 7.66929 12.2843 6.93348 12.2843 6.02581C12.2843 5.11814 11.5485 4.38232 10.6408 4.38232C9.73317 4.38232 8.99736 5.11814 8.99736 6.02581C8.99736 6.93348 9.73317 7.66929 10.6408 7.66929Z" fill="#5FD0F2"/>
<path d="M16.7546 6.28868C17.6623 6.28868 18.3981 5.55286 18.3981 4.64519C18.3981 3.73752 17.6623 3.00171 16.7546 3.00171C15.8469 3.00171 15.1111 3.73752 15.1111 4.64519C15.1111 5.55286 15.8469 6.28868 16.7546 6.28868Z" fill="#8FCE46"/>
<path d="M22.5988 7.5377C23.5065 7.5377 24.2423 6.80189 24.2423 5.89422C24.2423 4.98655 23.5065 4.25073 22.5988 4.25073C21.6911 4.25073 20.9553 4.98655 20.9553 5.89422C20.9553 6.80189 21.6911 7.5377 22.5988 7.5377Z" fill="#5FD0F2"/>
<path d="M4.79004 12.5997C5.69771 12.5997 6.43352 11.8639 6.43352 10.9562C6.43352 10.0486 5.69771 9.31274 4.79004 9.31274C3.88237 9.31274 3.14655 10.0486 3.14655 10.9562C3.14655 11.8639 3.88237 12.5997 4.79004 12.5997Z" fill="#5FD0F2"/>
<path d="M10.0492 13.5201C10.9569 13.5201 11.6927 12.7843 11.6927 11.8766C11.6927 10.969 10.9569 10.2332 10.0492 10.2332C9.14151 10.2332 8.4057 10.969 8.4057 11.8766C8.4057 12.7843 9.14151 13.5201 10.0492 13.5201Z" fill="#8FCE46"/>
<path d="M15.637 11.4823C16.5447 11.4823 17.2805 10.7465 17.2805 9.8388C17.2805 8.93113 16.5447 8.19531 15.637 8.19531C14.7294 8.19531 13.9935 8.93113 13.9935 9.8388C13.9935 10.7465 14.7294 11.4823 15.637 11.4823Z" fill="#5FD0F2"/>
<path d="M17.8064 16.6756C18.7141 16.6756 19.4499 15.9398 19.4499 15.0322C19.4499 14.1245 18.7141 13.3887 17.8064 13.3887C16.8988 13.3887 16.1629 14.1245 16.1629 15.0322C16.1629 15.9398 16.8988 16.6756 17.8064 16.6756Z" fill="#5FD0F2"/>
<path d="M25.5637 17.9247C26.4713 17.9247 27.2071 17.1888 27.2071 16.2812C27.2071 15.3735 26.4713 14.6377 25.5637 14.6377C24.656 14.6377 23.9202 15.3735 23.9202 16.2812C23.9202 17.1888 24.656 17.9247 25.5637 17.9247Z" fill="#5FD0F2"/>
<path d="M28.259 11.7452C29.1666 11.7452 29.9025 11.0094 29.9025 10.1017C29.9025 9.19406 29.1666 8.45825 28.259 8.45825C27.3513 8.45825 26.6155 9.19406 26.6155 10.1017C26.6155 11.0094 27.3513 11.7452 28.259 11.7452Z" fill="#5FD0F2"/>
<path d="M2.5549 17.9247C3.46257 17.9247 4.19838 17.1888 4.19838 16.2812C4.19838 15.3735 3.46257 14.6377 2.5549 14.6377C1.64723 14.6377 0.911415 15.3735 0.911415 16.2812C0.911415 17.1888 1.64723 17.9247 2.5549 17.9247Z" fill="#5FD0F2"/>
<path d="M7.87979 19.5682C8.78746 19.5682 9.52327 18.8324 9.52327 17.9247C9.52327 17.0171 8.78746 16.2812 7.87979 16.2812C6.97212 16.2812 6.23631 17.0171 6.23631 17.9247C6.23631 18.8324 6.97212 19.5682 7.87979 19.5682Z" fill="#5FD0F2"/>
<path d="M12.8102 17.5301C13.7179 17.5301 14.4537 16.7943 14.4537 15.8866C14.4537 14.979 13.7179 14.2432 12.8102 14.2432C11.9026 14.2432 11.1668 14.979 11.1668 15.8866C11.1668 16.7943 11.9026 17.5301 12.8102 17.5301Z" fill="#E05336"/>
<path d="M22.2767 13.3885C23.1844 13.3885 23.9202 12.6527 23.9202 11.745C23.9202 10.8374 23.1844 10.1016 22.2767 10.1016C21.369 10.1016 20.6332 10.8374 20.6332 11.745C20.6332 12.6527 21.369 13.3885 22.2767 13.3885Z" fill="#8FCE46"/>
<path d="M20.6332 21.0145C21.5409 21.0145 22.2767 20.2787 22.2767 19.371C22.2767 18.4634 21.5409 17.7275 20.6332 17.7275C19.7255 17.7275 18.9897 18.4634 18.9897 19.371C18.9897 20.2787 19.7255 21.0145 20.6332 21.0145Z" fill="#E05336"/>
<path d="M30.8886 16.807C31.7962 16.807 32.532 16.0712 32.532 15.1635C32.532 14.2558 31.7962 13.52 30.8886 13.52C29.9809 13.52 29.2451 14.2558 29.2451 15.1635C29.2451 16.0712 29.9809 16.807 30.8886 16.807Z" fill="#5FD0F2"/>
<path d="M2.5549 23.5782C3.46257 23.5782 4.19838 22.8424 4.19838 21.9347C4.19838 21.0271 3.46257 20.2913 2.5549 20.2913C1.64723 20.2913 0.911415 21.0271 0.911415 21.9347C0.911415 22.8424 1.64723 23.5782 2.5549 23.5782Z" fill="#8FCE46"/>
<path d="M7.81405 24.8929C8.72172 24.8929 9.45753 24.1571 9.45753 23.2494C9.45753 22.3418 8.72172 21.606 7.81405 21.606C6.90638 21.606 6.17056 22.3418 6.17056 23.2494C6.17056 24.1571 6.90638 24.8929 7.81405 24.8929Z" fill="#E05336"/>
<path d="M13.9935 22.8551C14.9012 22.8551 15.637 22.1193 15.637 21.2116C15.637 20.3039 14.9012 19.5681 13.9935 19.5681C13.0859 19.5681 12.3501 20.3039 12.3501 21.2116C12.3501 22.1193 13.0859 22.8551 13.9935 22.8551Z" fill="#5FD0F2"/>
<path d="M18.9897 25.9449C19.8974 25.9449 20.6332 25.2091 20.6332 24.3014C20.6332 23.3938 19.8974 22.658 18.9897 22.658C18.0821 22.658 17.3463 23.3938 17.3463 24.3014C17.3463 25.2091 18.0821 25.9449 18.9897 25.9449Z" fill="#8FCE46"/>
<path d="M24.972 24.1041C25.8797 24.1041 26.6155 23.3683 26.6155 22.4606C26.6155 21.553 25.8797 20.8171 24.972 20.8171C24.0643 20.8171 23.3285 21.553 23.3285 22.4606C23.3285 23.3683 24.0643 24.1041 24.972 24.1041Z" fill="#5FD0F2"/>
<path d="M31.1515 23.2496C32.0592 23.2496 32.795 22.5138 32.795 21.6061C32.795 20.6985 32.0592 19.9626 31.1515 19.9626C30.2438 19.9626 29.508 20.6985 29.508 21.6061C29.508 22.5138 30.2438 23.2496 31.1515 23.2496Z" fill="#8FCE46"/>
<path d="M4.52708 28.8373C5.43475 28.8373 6.17057 28.1014 6.17057 27.1938C6.17057 26.2861 5.43475 25.5503 4.52708 25.5503C3.61941 25.5503 2.8836 26.2861 2.8836 27.1938C2.8836 28.1014 3.61941 28.8373 4.52708 28.8373Z" fill="#5FD0F2"/>
<path d="M11.8241 28.18C12.7318 28.18 13.4676 27.4442 13.4676 26.5365C13.4676 25.6289 12.7318 24.8931 11.8241 24.8931C10.9165 24.8931 10.1807 25.6289 10.1807 26.5365C10.1807 27.4442 10.9165 28.18 11.8241 28.18Z" fill="#5FD0F2"/>
<path d="M16.4259 30.941C17.3336 30.941 18.0694 30.2052 18.0694 29.2975C18.0694 28.3899 17.3336 27.6541 16.4259 27.6541C15.5182 27.6541 14.7824 28.3899 14.7824 29.2975C14.7824 30.2052 15.5182 30.941 16.4259 30.941Z" fill="#8FCE46"/>
<path d="M22.6054 29.1002C23.5131 29.1002 24.2489 28.3644 24.2489 27.4567C24.2489 26.549 23.5131 25.8132 22.6054 25.8132C21.6977 25.8132 20.9619 26.549 20.9619 27.4567C20.9619 28.3644 21.6977 29.1002 22.6054 29.1002Z" fill="#5FD0F2"/>
<path d="M29.1793 28.5743C30.087 28.5743 30.8228 27.8385 30.8228 26.9308C30.8228 26.0232 30.087 25.2874 29.1793 25.2874C28.2717 25.2874 27.5358 26.0232 27.5358 26.9308C27.5358 27.8385 28.2717 28.5743 29.1793 28.5743Z" fill="#5FD0F2"/>
<path d="M7.87979 32.453C8.78746 32.453 9.52327 31.7172 9.52327 30.8095C9.52327 29.9018 8.78746 29.166 7.87979 29.166C6.97212 29.166 6.23631 29.9018 6.23631 30.8095C6.23631 31.7172 6.97212 32.453 7.87979 32.453Z" fill="#8FCE46"/>
<path d="M13.4676 35.0826C14.3753 35.0826 15.1111 34.3468 15.1111 33.4391C15.1111 32.5315 14.3753 31.7957 13.4676 31.7957C12.56 31.7957 11.8242 32.5315 11.8242 33.4391C11.8242 34.3468 12.56 35.0826 13.4676 35.0826Z" fill="#5FD0F2"/>
<path d="M19.9101 35.0826C20.8178 35.0826 21.5536 34.3468 21.5536 33.4391C21.5536 32.5315 20.8178 31.7957 19.9101 31.7957C19.0024 31.7957 18.2666 32.5315 18.2666 33.4391C18.2666 34.3468 19.0024 35.0826 19.9101 35.0826Z" fill="#5FD0F2"/>
<path d="M25.5637 32.5846C26.4713 32.5846 27.2071 31.8488 27.2071 30.9411C27.2071 30.0334 26.4713 29.2976 25.5637 29.2976C24.656 29.2976 23.9202 30.0334 23.9202 30.9411C23.9202 31.8488 24.656 32.5846 25.5637 32.5846Z" fill="#8FCE46"/>
</g>
<path d="M46.8383 19V7.75742H42.615V5.15696H53.8967V7.75742H49.6538V19H46.8383ZM54.7608 19V8.69593H57.2244L57.4004 9.92773C57.6611 9.53668 57.9543 9.2434 58.2802 9.04787C58.6061 8.83932 58.945 8.70245 59.2969 8.63727C59.6489 8.55907 60.0073 8.51996 60.3723 8.51996C60.5418 8.51996 60.6982 8.52648 60.8416 8.53951C60.985 8.53951 61.0892 8.53951 61.1544 8.53951V11.1791H60.5092C59.8965 11.1791 59.3621 11.2834 58.9059 11.4919C58.4497 11.7005 58.0977 12.0263 57.8501 12.4695C57.6154 12.9127 57.4981 13.4797 57.4981 14.1706V19H54.7608ZM62.4366 19V8.69593H65.1739V19H62.4366ZM63.8053 7.65966C63.2969 7.65966 62.8863 7.50976 62.5735 7.20996C62.2606 6.89712 62.1042 6.49956 62.1042 6.01726C62.1042 5.50891 62.2672 5.09831 62.593 4.78547C62.9189 4.47263 63.3295 4.31621 63.8248 4.31621C64.281 4.31621 64.6721 4.47263 64.998 4.78547C65.3369 5.08527 65.5063 5.48935 65.5063 5.99771C65.5063 6.49304 65.3434 6.89712 65.0175 7.20996C64.7047 7.50976 64.3006 7.65966 63.8053 7.65966ZM73.2095 19.1369C72.8706 19.1369 72.5121 19.1043 72.1341 19.0391C71.7691 18.9739 71.4041 18.8501 71.0392 18.6676C70.6872 18.4721 70.3548 18.1984 70.042 17.8464L70.0224 19H67.3438V5.15696H70.0811V9.90817C70.4722 9.43892 70.9544 9.0935 71.528 8.8719C72.1145 8.63727 72.7207 8.51996 73.3463 8.51996C74.3631 8.51996 75.1973 8.75459 75.849 9.22384C76.5008 9.68006 76.9831 10.3057 77.2959 11.1009C77.6218 11.896 77.7847 12.8084 77.7847 13.8382C77.7847 14.8419 77.6218 15.7478 77.2959 16.556C76.97 17.3511 76.4682 17.9833 75.7904 18.4525C75.1256 18.9088 74.2653 19.1369 73.2095 19.1369ZM72.6229 16.6928C73.2616 16.6928 73.7569 16.5494 74.1089 16.2627C74.4608 15.9759 74.7085 15.6109 74.8519 15.1677C74.9953 14.7246 75.0669 14.2618 75.0669 13.7795C75.0669 13.2972 74.9887 12.8475 74.8323 12.4304C74.6759 12.0003 74.4152 11.6614 74.0502 11.4137C73.6983 11.153 73.2225 11.0227 72.6229 11.0227C72.0754 11.0227 71.6062 11.1595 71.2151 11.4333C70.8371 11.694 70.5504 12.0394 70.3548 12.4695C70.1593 12.8997 70.0616 13.3624 70.0616 13.8577C70.0616 14.3531 70.1463 14.8223 70.3157 15.2655C70.4982 15.6957 70.7785 16.0411 71.1565 16.3018C71.5345 16.5625 72.0233 16.6928 72.6229 16.6928ZM84.257 19.1369C83.1751 19.1369 82.2561 18.9218 81.5001 18.4916C80.7441 18.0615 80.164 17.4554 79.76 16.6733C79.3559 15.8781 79.1538 14.9527 79.1538 13.8968C79.1538 12.828 79.3624 11.896 79.7795 11.1009C80.1966 10.2927 80.7832 9.66051 81.5392 9.20429C82.3083 8.74807 83.2142 8.51996 84.257 8.51996C85.0391 8.51996 85.7234 8.65031 86.31 8.91101C86.9096 9.1717 87.4114 9.53668 87.8155 10.0059C88.2326 10.4752 88.5389 11.0227 88.7345 11.6483C88.943 12.261 89.0408 12.9257 89.0278 13.6427C89.0278 13.8252 89.0212 14.0011 89.0082 14.1706C88.9952 14.34 88.9691 14.5095 88.93 14.6789H81.8716C81.9107 15.07 82.0215 15.4284 82.204 15.7543C82.3865 16.0802 82.6407 16.3409 82.9665 16.5364C83.3054 16.7189 83.7226 16.8101 84.2179 16.8101C84.5438 16.8101 84.8436 16.7776 85.1173 16.7124C85.391 16.6342 85.6257 16.5169 85.8212 16.3604C86.0167 16.204 86.1536 16.0215 86.2318 15.813H88.93C88.7605 16.582 88.4412 17.2142 87.9719 17.7095C87.5157 18.2049 86.9617 18.5698 86.31 18.8045C85.6582 19.0261 84.9739 19.1369 84.257 19.1369ZM81.9303 12.7628H86.4077C86.3947 12.4109 86.3035 12.085 86.134 11.7852C85.9776 11.4724 85.7364 11.2247 85.4106 11.0422C85.0977 10.8467 84.6937 10.7489 84.1983 10.7489C83.703 10.7489 83.2859 10.8467 82.947 11.0422C82.6211 11.2377 82.3735 11.4919 82.204 11.8047C82.0476 12.1046 81.9563 12.4239 81.9303 12.7628ZM94.0565 19.1369C93.5873 19.1369 93.131 19.0782 92.6879 18.9609C92.2577 18.8305 91.8732 18.635 91.5343 18.3743C91.1954 18.1136 90.9281 17.7878 90.7326 17.3967C90.5371 17.0057 90.4393 16.5494 90.4393 16.028C90.4393 15.3242 90.5827 14.7637 90.8695 14.3465C91.1563 13.9164 91.5408 13.5905 92.0231 13.3689C92.5054 13.1473 93.0593 12.9974 93.685 12.9192C94.3237 12.841 94.982 12.8019 95.6598 12.8019H97.1458C97.1458 12.4239 97.0741 12.0915 96.9307 11.8047C96.8004 11.5049 96.5983 11.2768 96.3246 11.1204C96.0509 10.951 95.6989 10.8662 95.2688 10.8662C94.995 10.8662 94.7278 10.9053 94.4671 10.9836C94.2195 11.0487 94.0109 11.1465 93.8414 11.2768C93.672 11.4072 93.5612 11.5766 93.5091 11.7852H90.7326C90.8108 11.2117 90.9933 10.7229 91.2801 10.3188C91.5669 9.90166 91.9253 9.56275 92.3555 9.30205C92.7856 9.04136 93.2549 8.85235 93.7632 8.73504C94.2846 8.60469 94.8191 8.53951 95.3665 8.53951C96.8655 8.53951 97.9735 8.96966 98.6904 9.82997C99.4073 10.6772 99.7658 11.883 99.7658 13.4471V19H97.3022L97.2631 17.6704C96.9372 18.1267 96.5657 18.4591 96.1486 18.6676C95.7445 18.8762 95.3535 19.0065 94.9755 19.0587C94.5975 19.1108 94.2911 19.1369 94.0565 19.1369ZM94.6822 16.9666C95.1384 16.9666 95.5555 16.8753 95.9335 16.6928C96.3116 16.5103 96.6114 16.2627 96.8329 15.9498C97.0545 15.637 97.1653 15.2851 97.1653 14.894V14.6398H95.2883C95.0146 14.6398 94.7474 14.6529 94.4867 14.6789C94.239 14.705 94.0109 14.7571 93.8023 14.8354C93.6068 14.9005 93.4504 15.0113 93.3331 15.1677C93.2158 15.3242 93.1571 15.5327 93.1571 15.7934C93.1571 16.0541 93.2223 16.2757 93.3526 16.4582C93.496 16.6277 93.685 16.758 93.9197 16.8492C94.1543 16.9275 94.4085 16.9666 94.6822 16.9666ZM101.904 19V8.69593H104.368L104.544 9.92773C104.804 9.53668 105.098 9.2434 105.423 9.04787C105.749 8.83932 106.088 8.70245 106.44 8.63727C106.792 8.55907 107.151 8.51996 107.516 8.51996C107.685 8.51996 107.841 8.52648 107.985 8.53951C108.128 8.53951 108.232 8.53951 108.298 8.53951V11.1791H107.652C107.04 11.1791 106.505 11.2834 106.049 11.4919C105.593 11.7005 105.241 12.0263 104.993 12.4695C104.759 12.9127 104.641 13.4797 104.641 14.1706V19H101.904ZM114.003 19.1369C112.947 19.1369 112.041 18.9218 111.285 18.4916C110.542 18.0615 109.975 17.4554 109.584 16.6733C109.193 15.8781 108.998 14.9462 108.998 13.8773C108.998 12.7954 109.2 11.8569 109.604 11.0618C110.008 10.2536 110.588 9.62793 111.344 9.18474C112.113 8.74155 113.039 8.51996 114.121 8.51996C114.955 8.51996 115.698 8.66986 116.35 8.96966C117.001 9.26947 117.523 9.69962 117.914 10.2601C118.318 10.8206 118.552 11.5115 118.618 12.3327H115.939C115.822 11.8764 115.593 11.5441 115.255 11.3355C114.929 11.1269 114.538 11.0227 114.081 11.0227C113.495 11.0227 113.026 11.166 112.674 11.4528C112.335 11.7396 112.087 12.1046 111.931 12.5477C111.787 12.9909 111.716 13.4341 111.716 13.8773C111.716 14.3596 111.794 14.8158 111.95 15.246C112.107 15.6631 112.354 16.0085 112.693 16.2822C113.045 16.5429 113.501 16.6733 114.062 16.6733C114.531 16.6733 114.942 16.569 115.294 16.3604C115.646 16.1388 115.874 15.7999 115.978 15.3437H118.715C118.65 16.191 118.396 16.8949 117.953 17.4554C117.51 18.0159 116.943 18.4395 116.252 18.7263C115.574 19 114.824 19.1369 114.003 19.1369Z" fill="white"/>
<path d="M43.7243 33.1462V22.7014H45.3642L50.8156 31.403V22.7014H52.1009V33.1462H50.4906L45.0096 24.4742V33.1462H43.7243ZM57.9691 33.1462L61.8545 22.7014H63.7012L67.5719 33.1462H66.1832L65.3559 30.9007H60.1851L59.3578 33.1462H57.9691ZM60.6136 29.7336H64.9274L62.7705 23.8242L60.6136 29.7336ZM74.9752 33.1462V23.8685H71.6216V22.7014H79.614V23.8685H76.2605V33.1462H74.9752ZM85.5432 33.1462V22.7014H86.8285V33.1462H85.5432ZM98.1707 33.2644C97.0873 33.2644 96.1812 33.033 95.4524 32.5701C94.7236 32.1072 94.172 31.4719 93.7978 30.6643C93.4334 29.8567 93.2512 28.9456 93.2512 27.9312C93.2512 26.9069 93.4334 25.9909 93.7978 25.1833C94.172 24.3757 94.7236 23.7404 95.4524 23.2775C96.1812 22.8146 97.0873 22.5832 98.1707 22.5832C99.2541 22.5832 100.155 22.8146 100.874 23.2775C101.603 23.7404 102.15 24.3757 102.514 25.1833C102.888 25.9909 103.076 26.9069 103.076 27.9312C103.076 28.9456 102.888 29.8567 102.514 30.6643C102.15 31.4719 101.603 32.1072 100.874 32.5701C100.155 33.033 99.2541 33.2644 98.1707 33.2644ZM98.1707 32.0973C98.9981 32.0973 99.6776 31.9102 100.209 31.5359C100.741 31.1518 101.13 30.6446 101.377 30.0143C101.633 29.3839 101.761 28.6896 101.761 27.9312C101.761 27.3599 101.687 26.8232 101.539 26.3209C101.401 25.8087 101.185 25.3606 100.889 24.9765C100.594 24.5924 100.219 24.292 99.7663 24.0753C99.3132 23.8586 98.7814 23.7503 98.1707 23.7503C97.3533 23.7503 96.6737 23.9423 96.132 24.3265C95.6001 24.7106 95.2013 25.2178 94.9353 25.8481C94.6793 26.4785 94.5512 27.1728 94.5512 27.9312C94.5512 28.6797 94.6793 29.3691 94.9353 29.9995C95.1914 30.6298 95.5854 31.137 96.1172 31.5212C96.6589 31.9053 97.3434 32.0973 98.1707 32.0973ZM109.498 33.1462V22.7014H111.138L116.59 31.403V22.7014H117.875V33.1462H116.264L110.784 24.4742V33.1462H109.498Z" fill="white"/>
<defs>
<clipPath id="clip0_4805_4133">
<rect width="33.6585" height="33.6585" fill="white" transform="translate(0 2.2439)"/>
</clipPath>
</defs>
</svg>
